# xmcd CD database file
#
# Track frame offsets:
#	150
#	18257
#	34604
#	54075
#	73301
#	94171
#	113543
#
# Disc length: 1771 seconds
#
# Revision: 7
# Processed by: cddbd v1.5.2PL0 Copyright (c) Steve Scherf et al.
# Submitted via: CDex 1.70beta2
#
DISCID=4e06e907
DTITLE=相対性理論＋渋谷慶一郎 - アワーミュージック
DYEAR=2010
DGENRE=JPop
TTITLE0=スカイライダーズ
TTITLE1=アワーミュージック
TTITLE2=BLUE
TTITLE3=sky riders (vo+pf)
TTITLE4=our music (vo+pf)
TTITLE5=BLUE strings edit feat. Hildur Guonadottir
TTITLE6=our music remodel light remixed by alva noto
EXTD=YEAR: 2010
EXTT0=
EXTT1=
EXTT2=
EXTT3=
EXTT4=
EXTT5=
EXTT6=
PLAYORDER=
